<?xml version="1.0" encoding="UTF-8" standalone="no"?>
<svg
   xmlns:dc="http://purl.org/dc/elements/1.1/"
   xmlns:cc="http://creativecommons.org/ns#"
   xmlns:rdf="http://www.w3.org/1999/02/22-rdf-syntax-ns#"
   xmlns:svg="http://www.w3.org/2000/svg"
   xmlns="http://www.w3.org/2000/svg"
   xmlns:sodipodi="http://sodipodi.sourceforge.net/DTD/sodipodi-0.dtd"
   xmlns:inkscape="http://www.inkscape.org/namespaces/inkscape"
   sodipodi:docname="greenbin.svg"
   inkscape:version="1.0 (4035a4f, 2020-05-01)"
   width="800px"
   height="600px"
   viewBox="0 0 800 600"
   version="1.1"
   id="SVGRoot">
  <defs
     id="defs143" />
  <sodipodi:namedview
     inkscape:window-maximized="0"
     inkscape:window-y="25"
     inkscape:window-x="0"
     inkscape:window-height="847"
     inkscape:window-width="1252"
     showgrid="false"
     inkscape:document-rotation="0"
     inkscape:current-layer="layer1"
     inkscape:document-units="px"
     inkscape:cy="400.72307"
     inkscape:cx="404.92611"
     inkscape:zoom="0.79685452"
     inkscape:pageshadow="2"
     inkscape:pageopacity="0.0"
     borderopacity="1.0"
     bordercolor="#666666"
     pagecolor="#ffffff"
     id="base" />
  <metadata
     id="metadata146">
    <rdf:RDF>
      <cc:Work
         rdf:about="">
        <dc:format>image/svg+xml</dc:format>
        <dc:type
           rdf:resource="http://purl.org/dc/dcmitype/StillImage" />
        <dc:title></dc:title>
      </cc:Work>
    </rdf:RDF>
  </metadata>
  <g
     id="layer1"
     inkscape:groupmode="layer"
     inkscape:label="Layer 1">
    <g
       id="g5728"
       transform="matrix(7.1416,0,0,7.646,-351.61108,-3603.8466)">
      <path
         id="rect5714"
         style="fill:#44aa00"
         d="m 106.11,478.36 c -6.5901,0 -12.108,1.5984 -13.552,3.7361 h 27.104 c -1.4442,-2.1377 -6.9621,-3.7361 -13.552,-3.7361 z m -34.414,5.2213 c -0.98697,0 -1.7868,0.79987 -1.7868,1.7868 v 2.6454 c 0,0.98697 0.79987,1.7868 1.7868,1.7868 h 66.484 c 0.98697,0 1.7868,-0.79987 1.7868,-1.7868 v -2.6454 c 0,-0.98697 -0.79987,-1.7868 -1.7868,-1.7868 z m 8.7021,7.4954 6.3816,52.677 h 38.429 l 5.9871,-52.677 h -50.797 z" />
      <path
         id="path5726"
         style="fill:#225500"
         d="m 105.64,504.29 c -6.1668,0 -11.165,4.9978 -11.165,11.165 0,6.1668 4.9978,11.165 11.165,11.165 6.1668,0 11.165,-4.9978 11.165,-11.165 0,-0.71851 -0.069,-1.4161 -0.1992,-2.0963 l 1.8023,-0.32251 -1.992,-2.3999 -2.0204,-2.3714 -1.0719,2.9216 -1.0529,2.931 2.0963,-0.36045 c 0.10646,0.54856 0.16125,1.1176 0.16125,1.6979 0,4.9095 -3.9786,8.888 -8.888,8.888 -4.9095,0 -8.888,-3.9786 -8.888,-8.888 0,-4.9095 3.9786,-8.888 8.888,-8.888 2.8803,0 5.4425,1.3676 7.0668,3.4907 l 0.88217,-2.4283 c -2.0242,-2.0588 -4.8324,-3.3389 -7.949,-3.3389 z" />
    </g>
  </g>
</svg>
