<?xml version="1.0" encoding="UTF-8" standalone="no"?>
<svg
   xmlns:dc="http://purl.org/dc/elements/1.1/"
   xmlns:cc="http://creativecommons.org/ns#"
   xmlns:rdf="http://www.w3.org/1999/02/22-rdf-syntax-ns#"
   xmlns:svg="http://www.w3.org/2000/svg"
   xmlns="http://www.w3.org/2000/svg"
   xmlns:sodipodi="http://sodipodi.sourceforge.net/DTD/sodipodi-0.dtd"
   xmlns:inkscape="http://www.inkscape.org/namespaces/inkscape"
   sodipodi:docname="redbin.svg"
   inkscape:version="1.0 (4035a4f, 2020-05-01)"
   width="800px"
   height="600px"
   viewBox="0 0 800 600"
   version="1.1"
   id="SVGRoot">
  <defs
     id="defs143" />
  <sodipodi:namedview
     inkscape:window-maximized="0"
     inkscape:window-y="25"
     inkscape:window-x="0"
     inkscape:window-height="847"
     inkscape:window-width="1252"
     showgrid="false"
     inkscape:document-rotation="0"
     inkscape:current-layer="g5728"
     inkscape:document-units="px"
     inkscape:cy="400.72307"
     inkscape:cx="404.92611"
     inkscape:zoom="0.79685452"
     inkscape:pageshadow="2"
     inkscape:pageopacity="0.0"
     borderopacity="1.0"
     bordercolor="#666666"
     pagecolor="#ffffff"
     id="base" />
  <metadata
     id="metadata146">
    <rdf:RDF>
      <cc:Work
         rdf:about="">
        <dc:format>image/svg+xml</dc:format>
        <dc:type
           rdf:resource="http://purl.org/dc/dcmitype/StillImage" />
        <dc:title></dc:title>
      </cc:Work>
    </rdf:RDF>
  </metadata>
  <g
     id="layer1"
     inkscape:groupmode="layer"
     inkscape:label="Layer 1">
    <g
       id="g5728"
       transform="matrix(7.1416,0,0,7.646,-351.61108,-3603.8466)">
      <path
         id="rect5714"
         style="fill:#44aa00"
         d="m 106.11,478.36 c -6.5901,0 -12.108,1.5984 -13.552,3.7361 h 27.104 c -1.4442,-2.1377 -6.9621,-3.7361 -13.552,-3.7361 z m -34.414,5.2213 c -0.98697,0 -1.7868,0.79987 -1.7868,1.7868 v 2.6454 c 0,0.98697 0.79987,1.7868 1.7868,1.7868 h 66.484 c 0.98697,0 1.7868,-0.79987 1.7868,-1.7868 v -2.6454 c 0,-0.98697 -0.79987,-1.7868 -1.7868,-1.7868 z m 8.7021,7.4954 6.3816,52.677 h 38.429 l 5.9871,-52.677 h -50.797 z" />
      <path
         id="path5726"
         style="fill:#f9f9f9"
         d="m 105.64,504.29 c -6.1668,0 -11.165,4.9978 -11.165,11.165 0,6.1668 4.9978,11.165 11.165,11.165 6.1668,0 11.165,-4.9978 11.165,-11.165 0,-0.71851 -0.069,-1.4161 -0.1992,-2.0963 l 1.8023,-0.32251 -1.992,-2.3999 -2.0204,-2.3714 -1.0719,2.9216 -1.0529,2.931 2.0963,-0.36045 c 0.10646,0.54856 0.16125,1.1176 0.16125,1.6979 0,4.9095 -3.9786,8.888 -8.888,8.888 -4.9095,0 -8.888,-3.9786 -8.888,-8.888 0,-4.9095 3.9786,-8.888 8.888,-8.888 2.8803,0 5.4425,1.3676 7.0668,3.4907 l 0.88217,-2.4283 c -2.0242,-2.0588 -4.8324,-3.3389 -7.949,-3.3389 z" />
      <path
         transform="matrix(0.14002464,0,0,0.13078734,49.234216,471.33751)"
         id="path184"
         d="m 268.23724,547.86411 c -0.91471,-5.74627 -44.64912,-392.85134 -44.64912,-395.20144 0,-1.38431 31.03574,-1.6715 180.63163,-1.6715 h 180.63163 l -0.58362,4.07853 c -0.74159,5.18248 -41.92635,394.32001 -41.92635,396.14452 0,0.96293 -39.61136,1.35589 -136.67752,1.35589 H 268.98637 Z M 425.63253,419.66938 c 35.25966,-11.09051 59.91927,-48.86019 57.19129,-87.59654 l -0.72507,-10.2958 4.70891,-0.8458 c 2.58991,-0.46519 5.40388,-1.21325 6.25329,-1.66237 1.02725,-0.54315 -3.32479,-7.02773 -12.99703,-19.36576 -7.99778,-10.20205 -14.73486,-18.35573 -14.97129,-18.11931 -0.69798,0.69799 -15.65691,45.2765 -15.30791,45.6185 0.17546,0.17194 3.34181,-0.23827 7.03632,-0.9116 3.69451,-0.67332 7.05745,-0.88406 7.4732,-0.46831 1.7094,1.7094 1.57641,16.95772 -0.22226,25.48371 -2.88729,13.68622 -8.76324,24.6481 -18.31878,34.17455 -12.74069,12.70195 -26.84393,18.82464 -43.28688,18.79233 -21.57125,-0.0424 -43.31797,-13.68267 -53.89029,-33.80184 -16.17375,-30.77871 -8.4734,-67.87087 18.29743,-88.13776 10.21451,-7.73291 19.31595,-11.14953 31.92061,-11.98279 18.37594,-1.21478 34.78845,5.21668 47.60674,18.6553 3.92449,4.11443 7.27478,7.31189 7.44507,7.10548 1.54262,-1.86979 5.67799,-17.76606 5.06919,-19.48576 -1.2678,-3.58108 -13.11684,-12.68328 -22.6156,-17.37287 -54.65289,-26.98239 -116.48458,17.88362 -113.23693,82.16642 1.19853,23.72321 9.23549,42.21536 25.46441,58.5908 10.09162,10.18273 24.37521,18.12216 38.20262,21.23465 10.66186,2.39995 28.16884,1.60106 38.90296,-1.77523 z"
         style="fill:#f9f9f9;stroke-width:1.25493" />
      <path
         transform="matrix(0.14002464,0,0,0.13078734,49.234216,471.33751)"
         id="path186"
         d="m 156.44914,139.76533 c -6.15458,-2.51902 -7.50559,-5.86714 -7.95981,-19.72642 -0.5078,-15.49396 0.0752,-18.45446 4.42901,-22.489407 l 3.26983,-3.030377 h 241.37179 241.37179 l 4.09833,3.660329 c 4.02155,3.591745 4.10663,3.890015 4.54113,15.918935 0.54715,15.1481 -1.02582,21.07796 -6.47209,24.39876 -3.93891,2.4017 -8.25898,2.44383 -243.07514,2.37031 -131.48574,-0.0412 -240.19441,-0.53713 -241.57484,-1.10213 z"
         style="fill:#ffff00;stroke-width:1.25493" />
      <path
         transform="matrix(0.14002464,0,0,0.13078734,49.234216,471.33751)"
         id="path188"
         d="m 311.43352,80.722721 c 0,-1.965808 9.90724,-8.769484 18.60253,-12.775055 8.62268,-3.972121 25.49282,-8.681636 40.37937,-11.272412 12.51601,-2.178221 59.01524,-2.178221 71.53125,0 14.88655,2.590776 31.7567,7.300291 40.37938,11.272412 8.69529,4.005571 18.60253,10.809247 18.60253,12.775055 0,0.815116 -32.81783,1.247063 -94.74753,1.247063 -61.9297,0 -94.74753,-0.431947 -94.74753,-1.247063 z"
         style="fill:#ff0000;stroke-width:1.25493" />
      <path
         transform="matrix(0.14002464,0,0,0.13078734,49.234216,471.33751)"
         id="path208"
         d="m 153.69552,136.67104 c -3.45692,-2.97062 -3.52855,-3.30991 -3.93299,-18.62928 l -0.41194,-15.60355 3.95954,-3.959543 3.95955,-3.959541 h 240.72083 240.72084 l 3.8948,4.435937 c 3.82825,4.360147 3.8948,4.661377 3.8948,17.631397 0,15.20419 -1.54776,19.58204 -7.67874,21.71931 -2.86625,0.99918 -71.25705,1.39099 -242.79792,1.39099 H 157.21657 Z"
         style="fill:#ff0000;stroke-width:1.25493" />
      <path
         transform="matrix(0.14002464,0,0,0.13078734,49.234216,471.33751)"
         id="path210"
         d="m 269.42885,551.00144 c -0.59239,-1.81118 -0.12672,2.25043 -23.84794,-208.00534 -20.8868,-185.13259 -21.33785,-189.31338 -20.51324,-190.138 0.34147,-0.34146 81.18563,-0.99467 179.6537,-1.45157 151.58861,-0.70339 179.03287,-0.56587 179.03287,0.89711 0,0.95032 -6.51329,63.02184 -14.47397,137.93672 -7.96068,74.91488 -17.41974,164.16252 -21.02015,198.32811 l -6.54618,62.11924 -58.35444,0.7639 c -113.14344,1.48113 -213.36796,1.27024 -213.93065,-0.45017 z M 427.8607,419.50215 c 23.12336,-7.97749 43.1121,-29.22058 51.29911,-54.51825 2.5923,-8.01011 3.38632,-13.43437 3.88778,-26.55886 l 0.63016,-16.49294 4.86061,-0.77724 c 2.77604,-0.44389 4.86062,-1.48253 4.86062,-2.42177 0,-3.53022 -25.98689,-37.4068 -28.20388,-36.76665 -1.18276,0.34152 -15.56982,41.16654 -15.66951,44.4641 -0.0379,1.25378 1.69207,1.43396 7.48029,0.7791 l 7.52961,-0.85187 -0.0149,10.51529 c -0.0271,19.11615 -6.56745,35.34068 -19.43252,48.20575 -18.80963,18.80963 -43.75069,23.48873 -66.84883,12.54125 -10.11029,-4.79182 -20.75564,-14.0559 -26.52719,-23.08521 -13.95306,-21.82887 -14.10254,-52.44929 -0.35965,-73.66957 6.35311,-9.80975 17.19106,-19.53705 27.32795,-24.52743 7.20572,-3.54737 9.74945,-4.10373 20.98744,-4.59042 19.63473,-0.85033 30.91491,3.61262 46.3881,18.35323 4.43882,4.22866 7.69583,6.45344 8.40608,5.74198 1.28848,-1.29064 5.05381,-14.90236 5.05381,-18.26946 0,-3.22264 -11.83194,-12.93846 -21.87541,-17.96303 -11.88287,-5.94479 -21.5816,-8.22425 -34.99287,-8.22425 -22.0768,0 -38.01074,6.90537 -54.87561,23.78171 -17.21622,17.22792 -25.04394,36.55052 -25.04394,61.82057 0,15.68134 2.62884,27.62582 9.03095,41.03335 4.07213,8.52801 7.12216,12.64924 15.88716,21.46694 11.52766,11.59695 22.13411,17.95762 36.57367,21.93316 9.94506,2.7381 33.09159,1.72004 43.641,-1.91948 z"
         style="fill:#d40000;stroke-width:1.25493" />
      <path
         transform="matrix(0.14002464,0,0,0.13078734,49.234216,471.33751)"
         id="path212"
         d="m 154.4146,136.26799 c -2.94619,-3.50135 -3.29113,-5.12749 -3.96951,-18.71318 l -0.74294,-14.87861 3.93341,-4.078538 3.9334,-4.078536 240.38746,0.04573 240.38746,0.04573 3.45107,4.548616 c 3.54613,4.673908 4.20185,8.439248 3.67212,21.086068 -0.48435,11.5632 -1.34855,14.30139 -5.13096,16.25735 -3.05118,1.57783 -36.76514,1.95445 -243.11868,2.71589 l -239.57625,0.88404 z"
         style="fill:#d40000;stroke-width:1.25493" />
      <path
         transform="matrix(0.14002464,0,0,0.13078734,49.234216,471.33751)"
         id="path214"
         d="m 349.08154,80.839602 -37.02056,-0.752219 6.03944,-4.192833 c 9.29898,-6.455743 20.04973,-10.836915 37.88326,-15.438272 l 16.31415,-4.20933 h 33.88322 33.88322 l 16.31415,4.151852 c 16.65974,4.239803 37.09991,13.040461 41.44901,17.846155 2.21637,2.449079 2.01411,2.469917 -23.99917,2.472614 -14.42892,0.0015 -40.07003,0.198813 -56.98027,0.438486 -16.91024,0.239671 -47.40514,0.09727 -67.76645,-0.316453 z"
         style="fill:#d40000;stroke-width:1.25493" />
    </g>
  </g>
</svg>
