<?xml version="1.0" encoding="UTF-8" standalone="no"?>
<svg
   xmlns:dc="http://purl.org/dc/elements/1.1/"
   xmlns:cc="http://creativecommons.org/ns#"
   xmlns:rdf="http://www.w3.org/1999/02/22-rdf-syntax-ns#"
   xmlns:svg="http://www.w3.org/2000/svg"
   xmlns="http://www.w3.org/2000/svg"
   xmlns:sodipodi="http://sodipodi.sourceforge.net/DTD/sodipodi-0.dtd"
   xmlns:inkscape="http://www.inkscape.org/namespaces/inkscape"
   sodipodi:docname="yellowbin.svg"
   inkscape:version="1.0 (4035a4f, 2020-05-01)"
   width="800px"
   height="600px"
   viewBox="0 0 800 600"
   version="1.1"
   id="SVGRoot">
  <defs
     id="defs143" />
  <sodipodi:namedview
     inkscape:window-maximized="0"
     inkscape:window-y="25"
     inkscape:window-x="0"
     inkscape:window-height="847"
     inkscape:window-width="1252"
     showgrid="false"
     inkscape:document-rotation="0"
     inkscape:current-layer="g5728"
     inkscape:document-units="px"
     inkscape:cy="400.72307"
     inkscape:cx="404.92611"
     inkscape:zoom="0.79685452"
     inkscape:pageshadow="2"
     inkscape:pageopacity="0.0"
     borderopacity="1.0"
     bordercolor="#666666"
     pagecolor="#ffffff"
     id="base" />
  <metadata
     id="metadata146">
    <rdf:RDF>
      <cc:Work
         rdf:about="">
        <dc:format>image/svg+xml</dc:format>
        <dc:type
           rdf:resource="http://purl.org/dc/dcmitype/StillImage" />
        <dc:title></dc:title>
      </cc:Work>
    </rdf:RDF>
  </metadata>
  <g
     id="layer1"
     inkscape:groupmode="layer"
     inkscape:label="Layer 1">
    <g
       id="g5728"
       transform="matrix(7.1416,0,0,7.646,-351.61108,-3603.8466)">
      <path
         id="rect5714"
         style="fill:#44aa00"
         d="m 106.11,478.36 c -6.5901,0 -12.108,1.5984 -13.552,3.7361 h 27.104 c -1.4442,-2.1377 -6.9621,-3.7361 -13.552,-3.7361 z m -34.414,5.2213 c -0.98697,0 -1.7868,0.79987 -1.7868,1.7868 v 2.6454 c 0,0.98697 0.79987,1.7868 1.7868,1.7868 h 66.484 c 0.98697,0 1.7868,-0.79987 1.7868,-1.7868 v -2.6454 c 0,-0.98697 -0.79987,-1.7868 -1.7868,-1.7868 z m 8.7021,7.4954 6.3816,52.677 h 38.429 l 5.9871,-52.677 h -50.797 z" />
      <path
         id="path5726"
         style="fill:#225500"
         d="m 105.64,504.29 c -6.1668,0 -11.165,4.9978 -11.165,11.165 0,6.1668 4.9978,11.165 11.165,11.165 6.1668,0 11.165,-4.9978 11.165,-11.165 0,-0.71851 -0.069,-1.4161 -0.1992,-2.0963 l 1.8023,-0.32251 -1.992,-2.3999 -2.0204,-2.3714 -1.0719,2.9216 -1.0529,2.931 2.0963,-0.36045 c 0.10646,0.54856 0.16125,1.1176 0.16125,1.6979 0,4.9095 -3.9786,8.888 -8.888,8.888 -4.9095,0 -8.888,-3.9786 -8.888,-8.888 0,-4.9095 3.9786,-8.888 8.888,-8.888 2.8803,0 5.4425,1.3676 7.0668,3.4907 l 0.88217,-2.4283 c -2.0242,-2.0588 -4.8324,-3.3389 -7.949,-3.3389 z" />
      <path
         transform="matrix(0.14002464,0,0,0.13078734,49.234216,471.33751)"
         id="path184"
         d="m 268.23724,547.86411 c -0.91471,-5.74627 -44.64912,-392.85134 -44.64912,-395.20144 0,-1.38431 31.03574,-1.6715 180.63163,-1.6715 h 180.63163 l -0.58362,4.07853 c -0.74159,5.18248 -41.92635,394.32001 -41.92635,396.14452 0,0.96293 -39.61136,1.35589 -136.67752,1.35589 H 268.98637 Z M 425.63253,419.66938 c 35.25966,-11.09051 59.91927,-48.86019 57.19129,-87.59654 l -0.72507,-10.2958 4.70891,-0.8458 c 2.58991,-0.46519 5.40388,-1.21325 6.25329,-1.66237 1.02725,-0.54315 -3.32479,-7.02773 -12.99703,-19.36576 -7.99778,-10.20205 -14.73486,-18.35573 -14.97129,-18.11931 -0.69798,0.69799 -15.65691,45.2765 -15.30791,45.6185 0.17546,0.17194 3.34181,-0.23827 7.03632,-0.9116 3.69451,-0.67332 7.05745,-0.88406 7.4732,-0.46831 1.7094,1.7094 1.57641,16.95772 -0.22226,25.48371 -2.88729,13.68622 -8.76324,24.6481 -18.31878,34.17455 -12.74069,12.70195 -26.84393,18.82464 -43.28688,18.79233 -21.57125,-0.0424 -43.31797,-13.68267 -53.89029,-33.80184 -16.17375,-30.77871 -8.4734,-67.87087 18.29743,-88.13776 10.21451,-7.73291 19.31595,-11.14953 31.92061,-11.98279 18.37594,-1.21478 34.78845,5.21668 47.60674,18.6553 3.92449,4.11443 7.27478,7.31189 7.44507,7.10548 1.54262,-1.86979 5.67799,-17.76606 5.06919,-19.48576 -1.2678,-3.58108 -13.11684,-12.68328 -22.6156,-17.37287 -54.65289,-26.98239 -116.48458,17.88362 -113.23693,82.16642 1.19853,23.72321 9.23549,42.21536 25.46441,58.5908 10.09162,10.18273 24.37521,18.12216 38.20262,21.23465 10.66186,2.39995 28.16884,1.60106 38.90296,-1.77523 z"
         style="fill:#ffff00;stroke-width:1.25493" />
      <path
         transform="matrix(0.14002464,0,0,0.13078734,49.234216,471.33751)"
         id="path186"
         d="m 156.44914,139.76533 c -6.15458,-2.51902 -7.50559,-5.86714 -7.95981,-19.72642 -0.5078,-15.49396 0.0752,-18.45446 4.42901,-22.489407 l 3.26983,-3.030377 h 241.37179 241.37179 l 4.09833,3.660329 c 4.02155,3.591745 4.10663,3.890015 4.54113,15.918935 0.54715,15.1481 -1.02582,21.07796 -6.47209,24.39876 -3.93891,2.4017 -8.25898,2.44383 -243.07514,2.37031 -131.48574,-0.0412 -240.19441,-0.53713 -241.57484,-1.10213 z"
         style="fill:#ffff00;stroke-width:1.25493" />
      <path
         transform="matrix(0.14002464,0,0,0.13078734,49.234216,471.33751)"
         id="path188"
         d="m 311.43352,80.722721 c 0,-1.965808 9.90724,-8.769484 18.60253,-12.775055 8.62268,-3.972121 25.49282,-8.681636 40.37937,-11.272412 12.51601,-2.178221 59.01524,-2.178221 71.53125,0 14.88655,2.590776 31.7567,7.300291 40.37938,11.272412 8.69529,4.005571 18.60253,10.809247 18.60253,12.775055 0,0.815116 -32.81783,1.247063 -94.74753,1.247063 -61.9297,0 -94.74753,-0.431947 -94.74753,-1.247063 z"
         style="fill:#ffff00;stroke-width:1.25493" />
    </g>
  </g>
</svg>
